<?xml version="1.0" encoding="UTF-8"?>
<svg width="14px" height="14px" viewBox="0 0 14 14" version="1.1" xmlns="http://www.w3.org/2000/svg" xmlns:xlink="http://www.w3.org/1999/xlink">
    <!-- Generator: sketchtool 51.2 (57519) - http://www.bohemiancoding.com/sketch -->
    <title>CCCDFD4B-4B6A-4059-ABAF-42DCEA9AFF14</title>
    <desc>Created with sketchtool.</desc>
    <defs></defs>
    <g id="Game-list" stroke="none" stroke-width="1" fill="none" fill-rule="evenodd">
        <g id="Game-List-(4)" transform="translate(-48.000000, -229.000000)" fill="#AAAAAA" fill-rule="nonzero">
            <g id="Group-2" transform="translate(28.000000, 209.000000)">
                <path d="M28.4,27 L33.7,21.7 C34.1,21.3 34.1,20.7 33.7,20.3 C33.3,19.9 32.7,19.9 32.3,20.3 L27,25.6 L21.7,20.3 C21.3,19.9 20.7,19.9 20.3,20.3 C19.9,20.7 19.9,21.3 20.3,21.7 L25.6,27 L20.3,32.3 C19.9,32.7 19.9,33.3 20.3,33.7 C20.5,33.9 20.7,34 21,34 C21.3,34 21.5,33.9 21.7,33.7 L27,28.4 L32.3,33.7 C32.5,33.9 32.8,34 33,34 C33.2,34 33.5,33.9 33.7,33.7 C34.1,33.3 34.1,32.7 33.7,32.3 L28.4,27 Z" id="Shape-X"></path>
            </g>
        </g>
    </g>
</svg>